<svg xmlns="http://www.w3.org/2000/svg" width="1280" height="1312" viewBox="0 0 1280 1312" version="1.1"><path d="M 285 679.689 C 198.717 686.190, 114.047 715.099, 42.500 762.485 C 16.499 779.706, 6.486 788.971, 3.144 798.899 C 2.395 801.126, 2.008 811.646, 2.022 829.399 C 2.047 859.686, 2.342 861.276, 9.231 868.164 C 14.771 873.704, 19.395 875.504, 28 875.470 C 36.496 875.437, 40.245 873.940, 46.256 868.181 C 52.745 861.964, 54 856.754, 54 836.031 L 54 818.138 61.967 812.523 C 66.349 809.435, 75.686 803.341, 82.717 798.981 L 95.500 791.053 96 887.277 L 96.500 983.500 98.716 987.643 C 102.953 995.565, 113.388 1002, 122 1002 C 128.104 1002, 135.203 998.893, 139.956 994.140 C 148.551 985.545, 148 993.851, 148 872.786 L 148 765.929 152.579 763.966 C 156.775 762.168, 188.655 751, 189.594 751 C 189.817 751, 190 830.795, 190 928.322 C 190 1084.757, 190.180 1106.172, 191.528 1110.128 C 199.214 1132.685, 232.786 1132.685, 240.472 1110.128 C 241.821 1106.170, 242 1084.088, 242 921.822 C 242 775.434, 242.255 737.999, 243.250 737.995 C 243.938 737.992, 250.575 737.130, 258 736.080 C 265.425 735.030, 274.307 733.885, 277.737 733.537 L 283.975 732.904 284.237 884.702 L 284.500 1036.500 286.662 1040.500 C 297.074 1059.760, 324.030 1059.535, 333.704 1040.108 C 335.405 1036.691, 335.514 1028.439, 335.760 884.122 L 336.019 731.744 346.760 732.452 C 352.667 732.842, 362 733.687, 367.500 734.330 L 377.500 735.500 378 986 C 378.476 1224.501, 378.586 1236.692, 380.301 1240.500 C 384.283 1249.346, 392.511 1254.950, 402.721 1255.770 C 408.304 1256.218, 409.710 1255.925, 415.387 1253.130 C 422.159 1249.796, 426.415 1245.284, 428.629 1239.090 C 429.660 1236.207, 429.921 1187.414, 429.956 991.250 C 429.980 856.912, 430.141 747, 430.312 747 C 431.518 747, 450.573 753.840, 460.250 757.746 L 472 762.489 472 1013.563 C 472 1296.564, 471.254 1271.349, 479.884 1279.979 C 492.795 1292.890, 512.766 1289.588, 522.094 1273 C 523.287 1270.878, 523.576 1234.258, 524 1031.103 L 524.500 791.706 541 802.752 C 550.075 808.828, 559.408 815.193, 561.740 816.898 L 565.979 819.997 566.240 1053.249 L 566.500 1286.500 569.602 1292 C 581.867 1313.744, 613.359 1308.610, 617.983 1284.114 C 618.652 1280.571, 619 1207.217, 619 1069.864 C 619 954.989, 619.239 861, 619.532 861 C 619.824 861, 629.049 868.211, 640.032 877.025 L 660 893.051 660 1089.344 C 660 1304.291, 659.634 1291.056, 665.817 1299.586 C 669.204 1304.259, 677.062 1308.773, 683.298 1309.627 C 693.945 1311.087, 704.793 1305.195, 709.643 1295.318 L 712.500 1289.500 712.761 1112.248 L 713.022 934.996 725.261 944.337 C 731.992 949.474, 741.204 956.257, 745.732 959.409 L 753.963 965.141 754.232 1120.320 C 754.485 1266.661, 754.601 1275.725, 756.281 1279.446 C 759.111 1285.717, 762.376 1289.343, 767.902 1292.350 C 781.277 1299.630, 796.732 1295.021, 803.784 1281.649 L 806.500 1276.500 806.767 1136.250 C 806.914 1059.112, 807.183 996, 807.366 996 C 807.549 996, 814.179 999.107, 822.099 1002.904 C 830.020 1006.701, 839.200 1010.891, 842.500 1012.215 L 848.500 1014.623 849 1086.561 C 849.562 1167.416, 849.045 1162.195, 857.213 1169.574 C 862.654 1174.489, 867.342 1176.305, 874.693 1176.343 C 886.369 1176.403, 896.831 1168.470, 899.967 1157.177 C 900.610 1154.863, 900.991 1131.203, 900.994 1093.348 L 901 1033.196 905.750 1034.650 C 909.555 1035.814, 927.268 1040.295, 940.750 1043.503 L 943 1044.038 943.022 1122.769 C 943.047 1211.614, 942.529 1205.663, 950.951 1213.837 C 963.321 1225.841, 983.849 1222.202, 992.338 1206.500 C 994.492 1202.514, 994.501 1202.235, 994.774 1126.994 L 995.048 1051.489 1008.774 1052.302 C 1016.323 1052.748, 1025.763 1052.967, 1029.750 1052.788 L 1037 1052.461 1037.006 1091.981 C 1037.009 1116.119, 1037.414 1132.950, 1038.046 1135.225 C 1038.615 1137.273, 1040.533 1140.854, 1042.308 1143.182 C 1051.513 1155.250, 1070.425 1156.509, 1081.164 1145.769 C 1088.653 1138.280, 1088.467 1139.631, 1088.779 1090.466 L 1089.059 1046.431 1098.779 1044.145 C 1104.126 1042.887, 1113.563 1040.162, 1119.750 1038.090 L 1131 1034.321 1131 1045.482 C 1131 1062.768, 1134.617 1070.219, 1145.621 1075.603 C 1158.071 1081.694, 1172.652 1077.254, 1179.728 1065.216 L 1182.500 1060.500 1183.130 1023 C 1183.703 988.872, 1183.605 985.140, 1182.038 981.500 C 1177.854 971.779, 1169.022 966, 1158.349 966 C 1152.548 966, 1151.108 966.512, 1138.598 973.021 C 1113.998 985.822, 1092.789 992.700, 1064.075 997.190 C 1047.626 999.762, 1007.503 1000.289, 989.500 998.170 C 937.798 992.084, 889.680 977.844, 840.481 954.069 C 810.944 939.795, 786.315 924.693, 758 903.494 C 741.309 890.997, 739.611 889.659, 679.752 841.813 C 597.431 776.012, 556.179 747.141, 510.704 723.500 C 465.444 699.971, 415.206 685.543, 361.063 680.524 C 346.188 679.145, 299.079 678.628, 285 679.689 M 301.293 1081.449 C 295.332 1083.312, 289.876 1087.990, 286.449 1094.176 L 283.500 1099.500 283.500 1125 C 283.500 1153.143, 283.681 1154.150, 290.030 1161.382 C 295.258 1167.336, 300.234 1169.454, 309 1169.454 C 317.521 1169.454, 322.322 1167.492, 327.638 1161.838 C 334.302 1154.750, 334.468 1153.946, 334.815 1127.203 C 335.188 1098.412, 334.610 1095.515, 326.979 1087.884 C 319.883 1080.788, 310.738 1078.497, 301.293 1081.449 M 867.500 1203.881 C 859.933 1205.860, 853.493 1211.449, 850.079 1219 C 848.335 1222.856, 848.042 1225.576, 848.032 1238 C 848.021 1251.110, 848.243 1252.979, 850.353 1257.500 C 859.684 1277.495, 888.050 1277.508, 897.129 1257.522 C 899.809 1251.623, 899.809 1224.377, 897.129 1218.478 C 894.892 1213.554, 890.041 1208.572, 884.958 1205.979 C 880.616 1203.763, 871.937 1202.721, 867.500 1203.881" stroke="none" fill="#8c54fc" fill-rule="evenodd"/><path d="M 681.994 2.934 C 675.123 5.024, 668.960 10.236, 665.362 17 C 663.658 20.204, 663.500 23.211, 663.500 52.500 C 663.500 83.401, 663.574 84.637, 665.662 88.500 C 670.753 97.917, 678.349 102.452, 689.078 102.480 C 695.785 102.498, 697.219 102.152, 701.544 99.479 C 708.129 95.408, 712.578 89.348, 713.995 82.522 C 714.748 78.899, 715.030 67.473, 714.817 49.252 C 714.504 22.397, 714.417 21.346, 712.124 16.723 C 706.703 5.795, 693.082 -0.439, 681.994 2.934 M 582.493 15.298 C 577.006 17.912, 571.653 23.369, 569.125 28.927 C 567.641 32.190, 567.477 54.397, 567.240 284.853 C 567.001 517.033, 566.851 537.157, 565.360 536.585 C 563.849 536.005, 539.768 529.436, 530.264 527.011 L 526.028 525.931 525.764 287.715 L 525.500 49.500 523.377 44.911 C 520.735 39.198, 514.983 33.350, 509.601 30.906 C 499.962 26.529, 486.868 29.663, 479.672 38.070 C 472.477 46.476, 473 27.170, 473 284.463 L 473 516.562 462.750 515.417 C 457.113 514.787, 447.663 513.943, 441.750 513.540 L 431 512.808 431 296.100 L 431 79.393 428.412 74.199 C 423.406 64.154, 412.505 58.055, 402.110 59.485 C 391.959 60.881, 382.768 68.977, 379.993 78.965 C 379.365 81.228, 379.009 159.906, 379.006 297.549 L 379 512.599 363.250 513.807 C 354.587 514.471, 345.137 515.299, 342.250 515.647 L 337 516.279 336.924 323.889 C 336.867 179.266, 336.556 130.709, 335.674 128.316 C 331.755 117.685, 321.909 110.667, 310.916 110.667 C 299.560 110.667, 289.121 118.703, 286.033 129.823 C 285.354 132.267, 285.008 199.034, 285.003 329 L 284.995 524.500 265.247 529.358 C 254.386 532.030, 244.938 534.430, 244.250 534.691 C 243.253 535.070, 243 502.467, 243 373.733 C 243 253.060, 242.705 211.440, 241.830 208.899 C 238.716 199.853, 231.144 192.921, 222.094 190.832 C 211.685 188.430, 200.704 193.457, 194.521 203.456 L 191.500 208.343 191 380.239 L 190.500 552.136 171 560.124 C 160.275 564.517, 150.938 568.360, 150.250 568.663 C 149.258 569.100, 149 557.755, 149 513.785 C 149 451.738, 149.110 452.814, 141.963 444.695 C 136.437 438.418, 129.524 435.622, 121.030 436.230 C 117.430 436.488, 113.032 437.449, 111.258 438.367 C 106.845 440.649, 101.765 445.904, 99.437 450.597 C 97.585 454.329, 97.488 457.573, 97.230 524.717 L 96.961 594.935 89.730 599.091 C 85.754 601.377, 76.313 606.997, 68.750 611.581 L 55 619.913 55 592.138 C 55 560.332, 54.465 557.082, 48.025 549.766 C 42.680 543.693, 36.745 541, 28.707 541 C 17.992 541, 9.248 546.697, 4.916 556.500 C 3.301 560.155, 3.126 565.641, 2.882 620.071 L 2.616 679.642 4.940 683.403 C 11.453 693.941, 22.462 698.768, 33.786 696.051 C 37.497 695.161, 43.122 691.755, 55.871 682.678 C 138.854 623.600, 234.904 583.881, 327 570.560 C 352.400 566.886, 370.582 565.684, 401.500 565.631 C 449.010 565.551, 483.914 569.680, 528.418 580.644 C 610.427 600.849, 680.004 640.049, 765 713.936 C 773.525 721.346, 791.525 737.389, 805 749.585 C 853.707 793.669, 873.415 808.168, 907.500 824.990 C 934.572 838.351, 955.839 845.442, 982.516 850.003 C 1041.071 860.013, 1098.190 842.896, 1137.545 803.544 C 1159.542 781.548, 1172.803 757.382, 1179.173 727.688 C 1182.244 713.370, 1182.283 688.535, 1179.255 675.407 C 1175.156 657.639, 1167.621 641.087, 1157.423 627.452 C 1142.914 608.054, 1121.447 592.034, 1109.928 592.010 C 1094.153 591.976, 1081.523 605.882, 1083.346 621.278 C 1084.313 629.441, 1088.582 635.738, 1097.201 641.716 C 1112 651.980, 1121.050 664.850, 1124.559 680.622 C 1126.846 690.900, 1126.107 710.300, 1123.021 721 C 1115.350 747.597, 1096.444 771.295, 1072.824 783.917 C 1041.083 800.879, 997.933 802.356, 954.694 787.962 C 915.442 774.894, 886.494 750.997, 870.552 718.500 C 864.347 705.850, 861.694 698.353, 858.698 685 C 856.887 676.928, 856.570 672.344, 856.588 654.500 C 856.606 636.555, 856.936 631.973, 858.858 623 C 866.947 585.248, 885.509 551.824, 912.821 525.833 C 979.062 462.796, 1083.737 453.480, 1161 503.745 C 1173.491 511.871, 1180.339 517.329, 1191.398 527.973 C 1204.506 540.590, 1213.994 552.074, 1224.453 567.985 C 1233.927 582.399, 1237.997 585.976, 1247.158 587.940 C 1253.746 589.353, 1258.920 588.402, 1265.221 584.620 C 1271.080 581.104, 1275.353 575.517, 1276.933 569.307 C 1277.634 566.553, 1277.997 543.397, 1277.990 501.807 L 1277.980 438.500 1275.626 433.444 C 1269.675 420.663, 1253.577 414.652, 1241.513 420.706 C 1236.153 423.395, 1230.091 430.142, 1227.990 435.755 C 1226.210 440.514, 1226 443.561, 1226 464.640 L 1226 488.206 1219.250 482.258 C 1210.809 474.819, 1196.281 463.878, 1189.302 459.704 L 1184 456.533 1184 371.426 L 1184 286.319 1180.915 280.146 C 1176.113 270.536, 1168.400 265.645, 1158 265.614 C 1146.923 265.581, 1137.046 272.546, 1133.528 282.872 C 1132.213 286.732, 1132 297.439, 1132 359.785 C 1132 428.363, 1131.907 432.177, 1130.250 431.520 C 1127.711 430.513, 1098.171 423.223, 1093.750 422.512 L 1090 421.909 1090 364.492 C 1090 309.176, 1089.925 306.876, 1087.963 301.631 C 1085.677 295.520, 1079.454 289.052, 1073.445 286.542 C 1071.416 285.694, 1066.974 285, 1063.574 285 C 1052.554 285, 1043.152 291.649, 1039.488 302.035 C 1038.238 305.576, 1038 315.267, 1038 362.497 L 1038 418.742 1029.750 419.435 C 1021.679 420.112, 1005.715 422.290, 999.250 423.594 L 996 424.250 996 271.663 C 996 121.768, 995.965 118.981, 994.010 113.755 C 991.698 107.576, 985.379 100.877, 979.590 98.467 C 977.440 97.572, 973.058 96.852, 969.853 96.868 C 959.606 96.917, 951.088 102.170, 946.578 111.220 L 944 116.393 944 279.075 L 944 441.757 940.750 443.100 C 934.760 445.574, 919.584 454.155, 910.750 460.062 L 902 465.912 902 271.071 C 902 92.709, 901.860 75.797, 900.349 71.119 C 892.980 48.301, 861.842 46.619, 851.867 68.500 C 850.120 72.332, 850.043 81.831, 850.022 294.796 L 850 517.093 842.016 529.160 C 832.754 543.158, 823.548 561.251, 818.438 575.500 C 815.001 585.082, 809.267 606.684, 808.756 611.975 C 808.622 613.364, 808.284 485.350, 808.006 327.500 L 807.500 40.500 805.298 36.384 C 801.834 29.909, 798.367 26.362, 792.780 23.578 C 780.704 17.560, 766.215 21.973, 759.272 33.784 L 756.500 38.500 756 337.354 L 755.500 636.208 747 629.242 C 742.325 625.410, 733.100 618.335, 726.500 613.519 L 714.500 604.762 714 377.631 L 713.500 150.500 711.348 145.844 C 708.493 139.668, 702.015 133.534, 696.285 131.582 C 683.326 127.166, 670.325 132.529, 664.314 144.770 L 661.500 150.500 661.239 362.173 L 660.977 573.846 648.739 568.068 C 642.007 564.891, 632.788 560.787, 628.250 558.949 L 620 555.607 620 297.353 C 620 115.280, 619.680 37.604, 618.914 34.033 C 617.472 27.311, 612.429 20.189, 606.507 16.512 C 599.774 12.331, 589.784 11.826, 582.493 15.298 M 1054 183.015 C 1048.454 185.601, 1043.514 190.225, 1040.663 195.500 C 1038.707 199.118, 1038.469 201.293, 1038.172 218.257 C 1037.908 233.367, 1038.152 237.943, 1039.430 241.789 C 1042.970 252.446, 1052.342 259.017, 1063.946 258.978 C 1072.156 258.951, 1077.157 256.765, 1082.618 250.817 C 1088.901 243.973, 1089.500 241.247, 1089.500 219.500 C 1089.500 198.513, 1089.076 196.573, 1082.970 189.618 C 1076.030 181.715, 1063.107 178.769, 1054 183.015 M 111.459 312.367 C 105.903 314.954, 101.655 319.385, 98.867 325.500 C 97.240 329.070, 97.043 332.565, 97.032 358 C 97.020 385.766, 97.080 386.629, 99.351 391.507 C 101.932 397.049, 107.456 402.444, 112.927 404.767 C 117.890 406.874, 126.564 406.827, 132.222 404.662 C 137.956 402.469, 145.114 394.900, 146.811 389.236 C 147.607 386.578, 147.997 376.061, 147.990 357.384 C 147.981 330.157, 147.925 329.382, 145.617 324.500 C 144.317 321.750, 141.959 318.289, 140.376 316.809 C 132.941 309.853, 120.847 307.995, 111.459 312.367 M 20.195 440.590 C 9.105 446.117, 6 453.209, 6 473.018 C 6 486.279, 6.091 486.862, 9.082 492.849 C 13.684 502.057, 21.851 507.010, 32.399 506.990 C 41.906 506.972, 51.687 500.336, 55.860 491.073 C 57.098 488.324, 57.473 484.154, 57.484 473 C 57.503 455.352, 56.270 451.227, 49.030 444.717 C 40.891 437.399, 29.787 435.810, 20.195 440.590" stroke="none" fill="#5474fc" fill-rule="evenodd"/></svg>